<svg width="0" height="0" xmlns="http://www.w3.org/2000/svg"><defs><symbol id="icon-burger" viewBox="0 0 32 32"><title>Ícone - hambúrguer (criado por Freepik https://www.freepik.com de https://www.flaticon.com/)</title><path d="M29.762 24.636a1.49 1.49 0 00.129-.608v-1.075c0-.365-.131-.699-.348-.96.215-.223.348-.526.348-.859v-1.016a1.19 1.19 0 00.3-1.483l-.286-.536a1.976 1.976 0 00-.176-3.696c.103-.204.162-.434.162-.677v-1.075c0-.171-.029-.336-.082-.489h.03c.854 0 1.549-.639 1.55-1.426a7.236 7.236 0 00-.546-2.81c-1.192-2.853-3.623-5.032-7.225-6.476-4.817-1.931-10.342-1.931-15.158 0-2.334.936-4.196 2.198-5.535 3.752a.469.469 0 00.71.612c1.24-1.439 2.981-2.615 5.174-3.494 4.595-1.843 9.866-1.843 14.461 0 3.361 1.347 5.618 3.355 6.71 5.968.315.755.475 1.579.474 2.448 0 .266-.281.49-.613.49H11.005l-.001-.001-.018.001H2.239c-.332 0-.613-.224-.613-.49A6.31 6.31 0 012.1 8.287c.112-.268.238-.532.374-.788a.469.469 0 00-.826-.442c-.151.281-.29.574-.413.869a7.222 7.222 0 00-.546 2.81c.001.786.696 1.426 1.55 1.426h.031a1.498 1.498 0 00-.083.489v1.075c0 .247.06.48.167.686a1.983 1.983 0 00-1.37 1.783 1.97 1.97 0 00.546 1.465c.185.194.401.344.638.448l-.281.527a1.19 1.19 0 00.3 1.483v1.016c0 .334.133.636.348.859a1.496 1.496 0 00-.348.96v1.075c0 .217.047.422.129.608A1.852 1.852 0 00.86 26.442v.875A4.689 4.689 0 005.543 32h20.993a4.689 4.689 0 004.683-4.683v-.875c0-.884-.625-1.625-1.456-1.806zM3.122 12.65c0-.209.114-.391.283-.489h25.267a.566.566 0 01.283.489v1.075a.567.567 0 01-.566.566H3.688a.567.567 0 01-.566-.566zm-.916 4.361a1.036 1.036 0 01-.288-.774c.026-.549.514-.996 1.089-.996h26.107c.289 0 .558.115.758.324s.302.484.288.774c-.026.549-.514.996-1.089.996H15.394a.978.978 0 00-.977.977v3.924a1.087 1.087 0 01-2.172 0v-3.924a.978.978 0 00-.977-.977h-1.49a.978.978 0 00-.977.977v.794c0 .3-.12.579-.337.786s-.502.313-.803.299c-.57-.027-1.033-.533-1.033-1.129v-.75a.978.978 0 00-.977-.977H2.963c-.289 0-.558-.115-.758-.325zm23.087 4.058c.425.196.873.287 1.411.287 1.025 0 1.559-.339 2.029-.638.076-.048.148-.094.221-.138v.554a.303.303 0 01-.303.303H15.353v-1.131c.191-.051.411-.081.684-.081.752 0 1.111.228 1.526.492.47.299 1.004.638 2.029.638s1.559-.339 2.029-.638c.415-.264.774-.492 1.526-.492.103 0 .203.004.296.013a.468.468 0 10.086-.932 4.263 4.263 0 00-.382-.017c-1.025 0-1.558.339-2.029.639-.415.264-.774.492-1.526.492s-1.111-.228-1.526-.492c-.471-.299-1.004-.639-2.029-.639a3.78 3.78 0 00-.684.058v-1.034a.04.04 0 01.041-.04h2.346l-.01.015h11.216l.419.787c.036.068.04.147.011.218a.237.237 0 01-.152.139c-.415.127-.722.323-.994.495-.415.264-.774.492-1.527.492-.403 0-.717-.062-1.019-.201a.468.468 0 10-.391.851zM5.249 18.272h.402c.022 0 .041.018.041.04v.75c0 .474.156.911.418 1.261-.203.06-.439.096-.738.096-.753 0-1.111-.228-1.526-.492-.271-.172-.579-.368-.993-.495a.242.242 0 01-.152-.139.253.253 0 01.01-.218l.419-.787h2.129l-.01-.015zm5.204 2.446c.247.157.511.324.855.448v.271H3.425a.303.303 0 01-.303-.303v-.553c.072.043.145.089.221.137.47.299 1.004.638 2.029.638.724 0 1.202-.169 1.587-.374.205.084.426.135.659.145.56.026 1.09-.171 1.493-.557.101-.096.19-.201.268-.312.464.072.752.254 1.074.459zm-.733-1.349a2.07 2.07 0 00.017-.262v-.794a.04.04 0 01.041-.04h1.489c.022 0 .041.018.041.04v1.827a5.865 5.865 0 01-.352-.212c-.331-.211-.693-.44-1.235-.558zm-6.598 3.584c0-.312.254-.566.566-.566h7.626c.077 1.045.952 1.873 2.016 1.873s1.94-.827 2.017-1.873h13.042c.312 0 .566.254.566.566v1.075a.567.567 0 01-.566.566H3.688a.567.567 0 01-.566-.566zm27.159 4.364a3.75 3.75 0 01-3.746 3.746H5.542a3.751 3.751 0 01-3.746-3.746v-.875c0-.503.409-.912.912-.912h26.661c.503 0 .912.409.912.912z"/><path d="M13.599 3.283a.584.584 0 11-1.168 0 .584.584 0 011.168 0zM19.647 3.283a.584.584 0 11-1.169 0 .584.584 0 011.169 0zM9.174 5.779a.584.584 0 11-1.168 0 .584.584 0 011.168 0zM16.623 5.779a.584.584 0 11-1.168 0 .584.584 0 011.168 0zM24.072 5.779a.583.583 0 11-1.167.001.583.583 0 011.167-.001z"/></symbol><symbol id="icon-pizza" viewBox="0 0 32 32"><title>Ícone - pizza (criado por Freepik https://www.freepik.com de https://www.flaticon.com/)</title><path d="M16.097 22.902c-1.38 0-2.503 1.123-2.503 2.503s1.123 2.503 2.503 2.503 2.503-1.123 2.503-2.503a2.506 2.506 0 00-2.503-2.503zm0 4.068c-.863 0-1.565-.702-1.565-1.565s.702-1.565 1.565-1.565 1.565.702 1.565 1.565-.702 1.565-1.565 1.565zM20.896 11.219c-1.016 0-1.843.827-1.843 1.843s.826 1.843 1.843 1.843c1.016 0 1.843-.827 1.843-1.843s-.827-1.843-1.843-1.843zm0 2.747a.906.906 0 010-1.81.906.906 0 010 1.81zM16.369 19.928c0-1.016-.827-1.843-1.843-1.843s-1.843.827-1.843 1.843.826 1.843 1.843 1.843 1.843-.826 1.843-1.843zm-2.747 0a.906.906 0 011.81 0 .906.906 0 01-1.81 0z"/><path d="M31.619 5.102a4.632 4.632 0 00-2.563-2.496c-1.74-.691-3.722-1.246-5.89-1.648a.47.47 0 00-.172.922c2.109.391 4.032.929 5.715 1.598a3.698 3.698 0 012.047 1.994 3.71 3.71 0 01.032 2.868l-.011.024c-.439-.547-1.158-.951-2.15-1.201-.278-.07-.554-.143-.83-.215-.692-.181-1.407-.369-2.131-.515-1.808-.364-3.766-.633-6.162-.846a31.674 31.674 0 00-2.861-.123 38.772 38.772 0 00-5.622.44l-.466.068c-2.563.375-5.214.762-7.688 1.573-.308.101-1.057.347-1.615.895l-.044-.1a3.714 3.714 0 01.032-2.868 3.695 3.695 0 012.047-1.994c5.825-2.315 12.638-2.291 12.707-2.29h.007c.02 0 2.068-.012 4.857.355a.469.469 0 10.122-.93C18.16.242 16.128.25 15.997.25 15.662.248 8.916.231 2.94 2.606A4.632 4.632 0 00.377 5.102a4.639 4.639 0 00-.04 3.587c.096.238.209.464.338.677-.281.892-.055 1.841.583 2.43.468.432 1.106.666 1.894.695.102.004.208.002.314-.001l1.427 2.861.001.004L7.11 19.8l1.089 2.184.003.005 3.537 7.093c.81 1.625 2.442 2.635 4.258 2.635s3.447-1.009 4.257-2.635l4.774-9.575 1.003-2.011.001-.002 2.633-5.28c.482-.004.943-.091 1.335-.316.905-.52 1.386-1.489 1.255-2.428a4.65 4.65 0 00.401-.779 4.646 4.646 0 00-.041-3.588zm-9.538 18.219a3.302 3.302 0 112.935-5.885l-.665 1.334zm3.355-6.727a4.19 4.19 0 00-2.158-.59 4.24 4.24 0 00-1.616 8.159l-2.244 4.5c-.66 1.324-1.938 2.115-3.418 2.115s-2.758-.791-3.418-2.115l-3.303-6.625a4.254 4.254 0 002.564-3.894c0-.645-.141-1.264-.419-1.841a.469.469 0 00-.845.408c.216.449.326.931.326 1.433a3.314 3.314 0 01-2.045 3.054l-2.939-5.895a3.304 3.304 0 013.35-.011.47.47 0 00.475-.809 4.237 4.237 0 00-4.243-.021l-1.045-2.096c.191-.041.383-.089.571-.148a59.139 59.139 0 013.511-.983.79.79 0 01.973.638l.396 2.377.004.023c.114.525.427.975.879 1.266a2.002 2.002 0 002.065.067 2.843 2.843 0 001.956.779c1.573 0 2.853-1.28 2.853-2.853s-1.28-2.853-2.853-2.853c-.488 0-.948.125-1.35.342a.787.787 0 01.721-.775 22.367 22.367 0 011.599-.086c3.63-.059 7.886.899 10.815 1.713.336.094.699.184 1.07.249l-2.231 4.473zm-11.588-3.165l-.232-1.392c.328-.263.743-.42 1.195-.42 1.056 0 1.915.859 1.915 1.915s-.859 1.915-1.915 1.915c-.484 0-.926-.181-1.263-.478l.024-.036c.289-.449.386-.983.276-1.504zm15.688-2.346c-.742.426-2.207.02-2.689-.114-2.989-.83-7.337-1.807-11.081-1.747-.527.009-1.088.039-1.666.09a1.73 1.73 0 00-1.555 2.007l.379 2.275.004.022a1.077 1.077 0 01-1.632 1.134 1.065 1.065 0 01-.467-.666l-.394-2.365a1.733 1.733 0 00-2.122-1.394 60.275 60.275 0 00-3.567.999c-.945.295-2.19.393-2.85-.216-.373-.344-.499-.942-.315-1.49.171-.509.673-.884 1.579-1.181 2.398-.785 5.008-1.167 7.532-1.536l.467-.068c1.952-.287 3.747-.427 5.487-.429h.044c.922 0 1.841.04 2.732.119 2.361.21 4.286.474 6.06.831.697.14 1.399.324 2.078.502.279.073.558.146.838.217 1.196.302 1.647.787 1.814 1.141.018.039.035.079.05.118.232.627-.081 1.381-.727 1.752z"/></symbol><symbol id="icon-french-fries" viewBox="0 0 32 32"><title>Ícone - fritas (criado por Freepik https://www.freepik.com de https://www.flaticon.com/)</title><path d="M30.878 2.99l-3.08-.521a1.35 1.35 0 00-1.553 1.103l-.262 1.559c.021-1.852-.002-3.258-.009-3.622A1.353 1.353 0 0024.627.188h-3.123c-.366 0-.698.148-.941.386L16.93.344A.959.959 0 0016 .89a.96.96 0 00-.931-.546l-3.633.23a1.342 1.342 0 00-.941-.386H7.372c-.729 0-1.333.593-1.347 1.321a.47.47 0 00.938.018.41.41 0 01.408-.4h2.978a.97.97 0 00-.094.547c.162 1.293.576 8.548.703 12.877a2.025 2.025 0 01-1.093-1.057l-.708-1.598a2.599 2.599 0 00-2.022-1.52c-.153-2.416-.188-4.913-.19-6.625v-.066a.47.47 0 00-.939 0v.067c0 .417.003.882.009 1.379-.062-.368-.167-1.003-.261-1.558A1.35 1.35 0 004.201 2.47l-3.08.521A1.354 1.354 0 00.014 4.518c.24 1.607.75 4.728 1.487 7.747.005.082.014.164.03.245L4.31 29.024l.002.013a3.539 3.539 0 004.147 2.781 59.21 59.21 0 015.937-.841 17.528 17.528 0 013.207 0c2.063.19 4.06.473 5.937.841a3.54 3.54 0 004.147-2.78l.002-.013 2.779-16.515c.016-.082.025-.164.03-.247.737-3.018 1.247-6.139 1.487-7.746a1.354 1.354 0 00-1.108-1.527zm-9.135-1.317a.972.972 0 00-.093-.547h2.978a.41.41 0 01.408.4c.013.668.08 4.872-.171 8.847a2.601 2.601 0 00-2.024 1.521l-.708 1.598c-.217.49-.614.863-1.093 1.057.127-4.329.541-11.584.703-12.877zm-4.898-.371c.001-.013.014-.023.027-.022l3.917.248c.003 0 .011.001.018.009s.006.016.005.019c-.166 1.324-.593 8.81-.715 13.143h-3.608c.048-3.289.184-11.558.356-13.397zm-5.651.236a.025.025 0 01.018-.009l3.918-.248a.027.027 0 01.027.022c.172 1.84.308 10.11.356 13.397h-3.608c-.122-4.333-.549-11.819-.715-13.143-.001-.003-.001-.01.005-.019zM.943 4.379a.41.41 0 01.335-.463l3.08-.521a.409.409 0 01.47.334c.142.839.313 1.863.313 1.864v.001l.806 4.755H3.313c-.443 0-.864.16-1.192.446A95.516 95.516 0 01.943 4.379zm28.603 7.955l-.002.013-2.778 16.514a2.598 2.598 0 01-3.044 2.035 59.95 59.95 0 00-6.032-.854 18.305 18.305 0 00-3.379 0c-2.095.193-4.124.48-6.032.854a2.598 2.598 0 01-3.044-2.035L2.456 12.347l-.002-.013a.876.876 0 01.86-1.046h3.47a1.66 1.66 0 011.517.987l.708 1.598a2.97 2.97 0 002.712 1.765h8.559a2.968 2.968 0 002.712-1.765l.708-1.598c.265-.6.861-.987 1.517-.987h3.47a.874.874 0 01.859 1.046zm1.511-7.955a95.528 95.528 0 01-1.179 6.416 1.81 1.81 0 00-1.192-.446h-2.634l.806-4.755v-.001s.17-1.024.313-1.863a.408.408 0 01.47-.334l3.08.521a.41.41 0 01.335.463z"/><path d="M16 17.042c-2.853 0-5.174 2.321-5.174 5.174a5.179 5.179 0 007.007 4.839.47.47 0 00-.333-.878 4.24 4.24 0 01-5.735-3.961A4.24 4.24 0 0116 17.981a4.24 4.24 0 014.234 4.235 4.22 4.22 0 01-1.133 2.883.468.468 0 10.687.639 5.156 5.156 0 001.385-3.523A5.18 5.18 0 0016 17.041z"/></symbol><symbol id="icon-doughnut" viewBox="0 0 32 32"><title>Ícone - doces (criado por Freepik https://www.freepik.com de https://www.flaticon.com/)</title><path d="M27.314 4.686a16.095 16.095 0 00-3.7-2.767A16.065 16.065 0 0015.609.005l-.06.002a16.202 16.202 0 00-3.838.573 16.076 16.076 0 00-7.144 4.229A15.892 15.892 0 000 16a15.974 15.974 0 007.187 13.356.47.47 0 10.518-.784 15.169 15.169 0 01-1.878-1.466 5.45 5.45 0 00.683-.387c.461-.293.859-.546 1.696-.546s1.236.253 1.697.546c.511.325 1.09.693 2.2.693s1.689-.368 2.2-.693c.461-.293.859-.546 1.697-.546s1.235.253 1.696.546c.511.325 1.09.693 2.201.693s1.69-.368 2.201-.693c.461-.293.859-.546 1.696-.546s1.236.253 1.697.546c.203.129.421.267.682.386a14.951 14.951 0 01-10.172 3.954c-2.26 0-4.433-.488-6.459-1.451a.47.47 0 10-.404.849A15.863 15.863 0 0016 31.999c2.172 0 4.339-.438 6.335-1.298a15.827 15.827 0 005.074-3.516c2.463-2.534 4.102-5.858 4.493-9.399.066-.593.098-1.19.098-1.788 0-4.274-1.664-8.292-4.686-11.314zM4.379 6.423a15.219 15.219 0 011.904-1.929 15.188 15.188 0 014.222-2.521l.009-.003.184-.071.016-.006-.002.001a14.908 14.908 0 012.59-.714l.007-.001a15.012 15.012 0 014.687-.108h.003c.219.029.438.063.655.102-.013.181-.041.47-.098.924l-.003.025c-.035.286-.062.583-.087.871-.097 1.086-.216 2.05-.692 2.86-.306.52-.877.83-1.481 1.159-.694.377-1.411.767-1.851 1.518-.343.584-.36 1.459-.379 2.386-.04 1.995-.226 2.829-1.269 2.829a1.135 1.135 0 01-1.138-1.138v-.856c0-1.229-.999-2.228-2.228-2.228s-2.228 1-2.228 2.228v3.457a1.14 1.14 0 01-1.138 1.138h-.097a1.14 1.14 0 01-1.138-1.139v-4.428c0-.058.002-.118.004-.178.004-.137.009-.291-.006-.447-.084-.876-.368-1.512-.843-1.888l-.604-.479c.305-.467.642-.924 1.004-1.362zm6.779 7.462A5.255 5.255 0 0010.716 16c0 2.914 2.371 5.285 5.284 5.285s5.285-2.371 5.285-5.285a5.274 5.274 0 00-1.362-3.541.47.47 0 10-.698.63A4.335 4.335 0 0120.345 16c0 2.396-1.949 4.345-4.345 4.345S11.655 18.396 11.655 16c0-.53.096-1.037.271-1.507.27.124.565.19.867.19.944 0 1.61-.472 1.927-1.366.163-.461.226-.992.255-1.538a4.332 4.332 0 012.643.187.47.47 0 10.35-.872 5.266 5.266 0 00-2.965-.283c.008-.377.019-.754.056-1.079A6.347 6.347 0 0122.338 16c0 3.495-2.844 6.339-6.339 6.339S9.66 19.495 9.66 16c0-1.291.389-2.494 1.055-3.497v.102c0 .466.158.917.442 1.28zm16.211 11.992c-.148.17-.301.338-.457.502-.362-.099-.623-.265-.918-.452-.511-.324-1.09-.693-2.2-.693s-1.69.368-2.2.693c-.461.293-.859.546-1.697.546s-1.236-.253-1.697-.546c-.511-.325-1.09-.693-2.2-.693s-1.69.368-2.201.693c-.461.293-.859.546-1.696.546s-1.235-.253-1.696-.546c-.511-.325-1.09-.693-2.201-.693s-1.689.368-2.2.693c-.295.188-.556.354-.917.452a13.99 13.99 0 01-.288-.312l-.001.003A15.023 15.023 0 01.941 16c0-2.638.674-5.173 1.94-7.408l.517.409c.333.264.451.821.491 1.241.009.097.006.209.002.329-.002.069-.004.138-.004.207v4.428a2.08 2.08 0 002.078 2.078h.097a2.08 2.08 0 002.078-2.078v-3.457a1.29 1.29 0 012.433-.592 7.249 7.249 0 00-1.849 4.842c0 4.014 3.265 7.279 7.279 7.279s7.279-3.265 7.279-7.279c0-4.013-3.265-7.279-7.279-7.279-.188 0-.374.008-.559.022.325-.375.801-.634 1.3-.906.69-.375 1.405-.764 1.842-1.508.575-.977.715-2.096.818-3.253.026-.293.051-.569.084-.84l.003-.023a26.779 26.779 0 00.092-.847 14.967 14.967 0 017.069 3.984 14.962 14.962 0 014.411 10.649 14.95 14.95 0 01-3.691 9.877z"/></symbol><symbol id="icon-ice-cream" viewBox="0 0 32 32"><title>Ícone - gelados (criado por Freepik https://www.freepik.com de https://www.flaticon.com/)</title><path d="M21.071.982l-.045-.026c-.037-.021-.073-.042-.111-.062a7.282 7.282 0 00-.152-.08l-.007-.003A7.362 7.362 0 0017.389 0h-2.8a7.36 7.36 0 00-3.206.731 7.412 7.412 0 00-4.196 6.671v13.836a3.569 3.569 0 003.565 3.565h2.707v4.667c0 1.395 1.135 2.53 2.53 2.53s2.53-1.135 2.53-2.53v-.713a.468.468 0 10-.936 0v.713c0 .879-.715 1.594-1.594 1.594s-1.594-.715-1.594-1.594v-4.667h3.188v1.769a.468.468 0 10.936 0v-1.769h2.707a3.569 3.569 0 003.565-3.565V7.402a7.408 7.408 0 00-3.72-6.42zM8.124 7.402A6.474 6.474 0 0114.59.936h2.8c1.058 0 2.058.256 2.941.709l.006.003.133.07a6.471 6.471 0 013.386 5.684v3.633h-3.544c-.863 0-1.564.702-1.564 1.564v1.774a1.145 1.145 0 01-2.288 0v-1.774c0-.863-.702-1.564-1.564-1.564H8.127zm9.937 8.999a2.084 2.084 0 001.621-2.029v-1.773c0-.347.282-.628.628-.628h.057v6.888a1.154 1.154 0 01-2.306 0v-2.457zm5.794 4.837a2.632 2.632 0 01-2.629 2.629H10.753a2.632 2.632 0 01-2.629-2.629v-9.267h2.552v1.517a.467.467 0 10.936 0v-1.517h2.306v6.888a1.154 1.154 0 01-2.306 0v-3.212a.468.468 0 10-.936 0v3.212c0 1.152.937 2.089 2.089 2.089s2.089-.937 2.089-2.089v-6.888h.039a.63.63 0 01.628.628v1.773c0 .983.686 1.808 1.603 2.025v2.461c0 1.152.937 2.089 2.089 2.089s2.089-.937 2.089-2.089V11.97h2.552z"/></symbol><symbol id="icon-fast-food" viewBox="0 0 32 32"><title>Ícone - combos (criado por Freepik https://www.freepik.com de https://www.flaticon.com/)</title><path d="M32 24.275c0-.482-.178-.923-.47-1.263.23-.199.376-.492.377-.818 0-.655-.108-1.279-.322-1.854-.7-1.877-2.127-3.311-4.242-4.261a10.836 10.836 0 00-8.75-.054l.129-2.991h.004c.685 0 1.242-.557 1.242-1.242v-1.76c0-.685-.557-1.242-1.242-1.242h-.131l-1.076-1.995a1.567 1.567 0 00-1.372-.837h-1.399a.47.47 0 100 .94h1.399a.63.63 0 01.545.344l.835 1.549H2.441l.836-1.549a.63.63 0 01.545-.344h8.774a.47.47 0 000-.94h-.859V1.792c0-.875-.712-1.589-1.586-1.592L7.541.188h-.006a1.143 1.143 0 00-1.148 1.148v.799a1.15 1.15 0 001.148 1.149h.964c.076 0 .138.062.138.138v2.536H3.821c-.567 0-1.093.321-1.372.837L1.373 8.79h-.131C.557 8.79 0 9.347 0 10.032v1.76c0 .629.47 1.149 1.078 1.229l.646 14.978a2.141 2.141 0 002.008 2.049l.722 1.165a1.27 1.27 0 001.078.587h8.735c.377 0 .733-.165.969-.438.447.277.973.437 1.536.437h12.265a2.932 2.932 0 002.929-2.929v-.847a1.27 1.27 0 00-.461-.98c.308-.343.495-.795.495-1.291zM8.498 2.344h-.964a.21.21 0 01-.209-.209v-.799c0-.076.039-.125.062-.148s.072-.061.147-.061h.001l2.61.012a.654.654 0 01.651.653v4.166h-1.22V3.422c0-.594-.483-1.077-1.078-1.077zm10.354 14.593c1.288-.579 2.67-.868 4.053-.868s2.765.289 4.053.868c1.877.843 3.138 2.099 3.747 3.732.175.469.263.982.263 1.525 0 .08-.068.146-.15.146H14.993a.148.148 0 01-.15-.146 4.332 4.332 0 01.263-1.525c.609-1.634 1.869-2.889 3.747-3.733zM.939 11.792v-1.76c0-.167.136-.302.302-.302h17.484c.167 0 .302.136.302.302v1.76a.302.302 0 01-.302.302h-.308a.468.468 0 00-.145-.023H1.527a.468.468 0 00-.145.023h-.141a.302.302 0 01-.302-.302zm1.08 1.242h15.762l-.098 2.27c-4.23 2.118-8.26 2.866-10.916 3.118-2.176.206-3.804.123-4.512.065zm.366 8.489l-.09-2.088c.795.061 2.397.126 4.528-.074 2.646-.249 6.613-.972 10.813-2.987l-.005.126c-1.659.933-2.804 2.222-3.407 3.84a5.27 5.27 0 00-.322 1.854c0 .327.147.619.377.818a1.933 1.933 0 00-.445.95c-2.783.63-6.845 1.156-11.324.453zm1.484 7.591a1.205 1.205 0 01-1.206-1.155l-.112-2.586c1.513.227 2.973.318 4.341.318a32.549 32.549 0 006.917-.753v.815c0 .496.188.948.495 1.291a1.273 1.273 0 00-.461.98v.847c0 .082.004.163.011.244H3.869zm10.398 1.747H5.532a.333.333 0 01-.28-.142l-.413-.666h9.253c.112.252.258.485.433.694a.34.34 0 01-.259.114zm16.759-1.991a1.99 1.99 0 01-1.989 1.989H16.771a1.99 1.99 0 01-1.989-1.989v-.847c0-.185.151-.336.336-.336H30.69c.185 0 .336.151.336.336zm.035-3.119a.997.997 0 01-.996.996h-14.32a.997.997 0 01-.996-.996v-1.476c0-.549.447-.996.996-.996h.538l3.364 2.274a1.785 1.785 0 002.064-.045.469.469 0 10-.56-.754.848.848 0 01-.978.022L17.96 23.28h5.177l-.249.185a.469.469 0 10.56.754l1.265-.939h5.351c.55 0 .996.447.996.996z"/></symbol><symbol id="icon-soft-drink" viewBox="0 0 32 32"><title>Ícone - bebidas (criado por Freepik https://www.freepik.com de https://www.flaticon.com/)</title><path d="M24.442 11.953a8.44 8.44 0 00-1.103-3.744.47.47 0 10-.814.468c.571.995.905 2.114.977 3.262H8.52c.243-3.921 3.51-7.036 7.491-7.036 1.978 0 3.845.763 5.257 2.148a.47.47 0 10.658-.67 8.397 8.397 0 00-4.214-2.246V1.044c0-.61-.496-1.105-1.105-1.105h-1.189c-.61 0-1.105.496-1.105 1.105v3.092c-3.7.76-6.526 3.947-6.732 7.818a1.199 1.199 0 00-1.017 1.183v1.661c0 .661.537 1.198 1.198 1.198h.083l.308 3.528v.001l.835 9.55a3.147 3.147 0 003.147 2.864h7.754a3.148 3.148 0 003.147-2.867l.834-9.546v-.001l.308-3.528h.083c.661 0 1.198-.537 1.198-1.198v-1.661a1.2 1.2 0 00-1.018-1.183zm-9.193-10.91c0-.092.075-.167.167-.167h1.189c.092 0 .167.075.167.167v2.955a8.34 8.34 0 00-1.522.001zm7.723 17.971h-8.389a.469.469 0 000 .938h8.307l-.79 9.033a2.213 2.213 0 01-2.213 2.013h-7.754a2.212 2.212 0 01-2.212-2.01l-.79-9.036h3.265a.469.469 0 000-.938H9.049l-.264-3.019h14.45zm1.549-4.217a.26.26 0 01-.259.259H7.761a.26.26 0 01-.26-.259v-1.661a.26.26 0 01.26-.259H24.262a.26.26 0 01.259.259z"/><path d="M19.473 24.243c.945 0 1.714-.769 1.714-1.714s-.769-1.713-1.714-1.713-1.713.769-1.713 1.713.769 1.714 1.713 1.714zm0-2.489c.427 0 .775.348.775.775s-.348.775-.775.775c-.427 0-.775-.348-.775-.775s.348-.775.775-.775zM11.625 23.774c0 .945.769 1.714 1.713 1.714s1.714-.769 1.714-1.714-.769-1.714-1.714-1.714-1.713.769-1.713 1.714zm1.713-.775a.776.776 0 11-.001 1.551.776.776 0 01.001-1.551zM16.371 29.31c.967 0 1.753-.786 1.753-1.753s-.786-1.753-1.753-1.753-1.753.786-1.753 1.753.786 1.753 1.753 1.753zm0-2.568a.815.815 0 11-.001 1.63.815.815 0 01.001-1.63zM11.582 21.826a.54.54 0 11-1.081 0 .54.54 0 011.081 0zM20.7 26.831a.558.558 0 11-1.116 0 .558.558 0 011.116 0zM17.246 24.038a.54.54 0 11-1.081 0 .54.54 0 011.081 0z"/></symbol><symbol id="icon-good-review" viewBox="0 0 32 32"><title>Ícone - clientes satisfeitos (criado por Freepik https://www.flaticon.com/authors/iconixar de https://www.flaticon.com/)</title><path d="M17.226 4.328a.5.5 0 00-.402-.341h-.003L15.18 3.75l-.733-1.473a.5.5 0 00-.894-.003l-.001.003-.733 1.473-1.641.236a.5.5 0 00-.277.854l1.185 1.145-.28 1.616a.5.5 0 00.727.527l-.003.001 1.469-.766 1.469.766a.5.5 0 00.723-.531v.003l-.281-1.616 1.185-1.145a.497.497 0 00.127-.516l.001.004zm-2.199 1.123a.497.497 0 00-.144.447v-.003l.152.881-.803-.419a.49.49 0 00-.465.001l.003-.001-.803.419.152-.881a.497.497 0 00-.145-.444l-.642-.62.891-.128a.504.504 0 00.375-.269l.001-.003.402-.808.402.808a.5.5 0 00.374.272h.003l.891.128zM23.976 6.328a.5.5 0 00-.402-.341h-.003L21.93 5.75l-.733-1.473a.5.5 0 00-.894-.003l-.001.003-.733 1.473-1.641.236a.5.5 0 00-.277.854l1.185 1.145-.279 1.616a.5.5 0 00.727.527l-.003.001 1.469-.766 1.469.766a.5.5 0 00.723-.531v.003l-.281-1.616 1.185-1.145a.5.5 0 00.128-.517l.001.004zm-2.199 1.123a.497.497 0 00-.144.447v-.003l.152.881-.803-.419a.49.49 0 00-.465.001l.003-.001-.803.419.152-.881a.497.497 0 00-.145-.444l-.642-.62.891-.128a.504.504 0 00.375-.269l.001-.003.402-.808.402.808a.5.5 0 00.374.272h.003l.891.128zM10.476 6.64a.5.5 0 00-.402-.341h-.003L8.43 6.062l-.733-1.473a.5.5 0 00-.894-.003l-.001.003-.733 1.473-1.641.236a.5.5 0 00-.277.854l1.185 1.145-.279 1.616a.5.5 0 00.727.527l-.003.001 1.469-.766 1.469.766a.5.5 0 00.723-.531v.003l-.281-1.616 1.185-1.145a.5.5 0 00.128-.517l.001.004zM8.277 7.764a.497.497 0 00-.144.447v-.003l.152.881-.803-.419a.49.49 0 00-.465.001l.003-.001-.803.419.152-.881a.497.497 0 00-.145-.444l-.642-.62.891-.128a.504.504 0 00.375-.269l.001-.003.402-.808.402.808a.5.5 0 00.374.272h.003l.891.128zM30.5 21h-3c-.2 0-.373.118-.453.288l-.001.003a1.415 1.415 0 01-.102-.19l-.004-.01-.981-2.288-.004-.01-2.5-5.5a.502.502 0 00-.682-.239l.003-.001c-.615.307-.996.697-1.215 1.129a11.863 11.863 0 00-6.002-2.582l-.06-.006V10.5h.5a.5.5 0 000-1h-4a.5.5 0 000 1h.5v1.094C6.75 12.314 2.253 17.117 2.01 23h-.511a.5.5 0 00-.5.5v1a1.502 1.502 0 001.5 1.5h13.883c.189.21.434.367.712.445l.011.003a1.499 1.499 0 001.393 2.053h8.501a.5.5 0 00.5.5h3a.5.5 0 00.5-.5v-7a.5.5 0 00-.5-.5zm-17-10.5h1v1.011a11.877 11.877 0 00-1 0zm.5 2h.013c2.807 0 5.367 1.055 7.307 2.789l-.011-.009c-.011.829.297 1.693.544 2.384.062.173.12.336.173.494.238.715.213 1.132.163 1.342H17.5h-.001a1.499 1.499 0 00-1.115 2.501L16.383 22a1.484 1.484 0 00-.383.999V23H3.012C3.274 17.166 8.102 12.5 14 12.5zm3 8.5a.5.5 0 01.5-.5h4a.5.5 0 010 1h-4a.5.5 0 01-.5-.5zm0 2a.5.5 0 01.5-.5h4a.5.5 0 010 1h-4a.5.5 0 01-.5-.5zM2.5 25a.5.5 0 01-.5-.5V24h14.383a1.484 1.484 0 00-.383.999V25zm15-.5h4a.5.5 0 010 1h-4a.5.5 0 010-1zm1 3a.5.5 0 010-1h3a.5.5 0 010 1zm4.414 0a1.49 1.49 0 00-.298-1.501l.001.001c.238-.264.383-.615.383-1s-.145-.736-.384-1.001l.001.001a1.51 1.51 0 00.179-.245l.004-.007c.617.319 1.647.752 2.701.752a.5.5 0 000-1c-1.034 0-2.103-.552-2.53-.799a1.497 1.497 0 00-.354-.702l.001.001a1.497 1.497 0 00.233-1.655l.004.009c.12-.12.69-.805.121-2.512-.056-.168-.116-.336-.179-.514-.501-1.405-.78-2.426-.011-3.094l2.258 4.968.979 2.283c.208.478.546.867.969 1.132l.01.006V27.5zM30 28h-2v-6h2z"/></symbol><symbol id="icon-order-food" viewBox="0 0 32 32"><title>Ícone - pedidos (criado por Freepik https://www.flaticon.com/authors/iconixar de https://www.flaticon.com/)</title><path d="M8 30.5h18a.5.5 0 00.5-.5V18c0-.431-.109-.836-.301-1.19l.007.013L22.5 9.874V2.999a2.503 2.503 0 00-2.5-2.5H8a2.503 2.503 0 00-2.5 2.5v25a2.503 2.503 0 002.5 2.5zm14-8a.5.5 0 00.5-.5V12l2.824 5.294c.111.204.176.447.176.706v11.5h-3a4.505 4.505 0 01-4.499-4.4v-.005a.5.5 0 00-.078-.377l.001.002-3.243-4.8a1.5 1.5 0 112.483-1.685l.003.005.009.013 2.919 4.04a.5.5 0 00.405.207zm-7.458-1H12a1 1 0 010-2h1.46c.064.371.201.701.398.988l-.005-.009zM19 11.499v.001c0 .551-.481 1-1.071 1h-.012c-.364 0-.687-.179-.885-.454l-.002-.003a.5.5 0 00-.819-.001l-.001.002a1.114 1.114 0 01-1.796.003l-.002-.003a.5.5 0 00-.819-.001l-.001.002a1.114 1.114 0 01-1.796.003l-.002-.003a.5.5 0 00-.819-.001l-.001.002a1.09 1.09 0 01-.887.457h-.013.001c-.591 0-1.071-.449-1.071-1zm-8.95-.999a2.509 2.509 0 012.45-2h3a2.505 2.505 0 012.447 1.984l.003.016zm-.141 3v-.007c.054.004.108.007.162.007h.005c.494 0 .949-.169 1.309-.453l-.004.003c.357.281.814.45 1.309.45s.952-.169 1.314-.454l-.005.004c.357.281.814.45 1.309.45s.952-.169 1.314-.454l-.005.004c.355.281.81.45 1.304.45h.006c.055 0 .109-.003.163-.007v.007c.226 0 .409.224.409.5s-.184.5-.409.5H9.908c-.226 0-.409-.224-.409-.5s.184-.5.409-.5zm.091 2h8v.5a.5.5 0 01-.5.5h-7a.5.5 0 01-.5-.5zM6.5 3A1.502 1.502 0 018 1.5h12A1.502 1.502 0 0121.5 3v1.5h-15zm0 2.5h15v16h-.744l-2.765-3.827a2.6 2.6 0 00-.163-.214l.003.004A1.505 1.505 0 0019.001 16v-.855c.308-.282.5-.686.5-1.135v-.011-.005c0-.345-.112-.664-.303-.922l.003.004c.485-.362.796-.933.8-1.576v-.001a1.002 1.002 0 00-1-1h-.036a3.509 3.509 0 00-3.463-3h-3a3.504 3.504 0 00-3.461 2.981l-.002.019h-.036a1.002 1.002 0 00-1 1c.003.644.315 1.215.794 1.573l.005.004c-.187.254-.3.572-.3.917v.016c0 .449.192.853.499 1.134l.001.001v.855a1.502 1.502 0 001.5 1.5h3.487a2.48 2.48 0 00-.49.983l-.004.017h-1.494a2 2 0 100 4h3.217l1.351 2H6.5zm0 20h10.524a5.507 5.507 0 002.302 3.988l.017.012H8A1.502 1.502 0 016.5 28z"/><path d="M11.5 3a.5.5 0 11-1 0 .5.5 0 011 0zM17 2.5h-3.5a.5.5 0 000 1H17a.5.5 0 000-1zM14 29a1.5 1.5 0 10-1.5-1.5A1.502 1.502 0 0014 29zm0-2a.5.5 0 11-.5.5.5.5 0 01.5-.5z"/></symbol><symbol id="icon-softdrinks" viewBox="0 0 32 32"><title>Ícone - categorias (criado por Freepik https://www.flaticon.com/authors/iconixar de https://www.flaticon.com/)</title><path d="M15 20.882v-7.713c.197-.296.5-.95.5-2.169 0-1.507-2.469-5.744-3-6.638V1.5A.5.5 0 0012 1H9a.5.5 0 00-.5.5v2.862c-.531.894-3 5.131-3 6.638 0 1.219.303 1.873.5 2.169v7.713l-.736 1.472c-.166.326-.263.71-.264 1.118V28.475c0 1.211.866 2.22 2.013 2.441l.016.003c.283.052.61.082.943.082h.03H8c1.317 0 2.08-.394 2.5-.747.42.352 1.183.747 2.5.747h.027c.334 0 .66-.03.977-.088l-.033.005A2.49 2.49 0 0016 28.475v-.013.001-4.99c0-.408-.098-.792-.271-1.132l.007.014zM11.716 5c.338.571.72 1.249 1.092 1.945H8.193c.372-.696.754-1.374 1.092-1.945zM11.5 2v2h-2V2zM7.674 7.945h5.652C13.981 9.25 14.5 10.467 14.5 11c0 .817-.162 1.281-.27 1.5H6.77c-.108-.219-.27-.683-.27-1.5 0-.533.519-1.75 1.174-3.055zM14 20.5H7v-7h7zm1 7.962v.012c0 .722-.516 1.324-1.199 1.458l-.009.002a4.32 4.32 0 01-.763.066h-.03.002c-1.559 0-2.009-.654-2.055-.729a.483.483 0 00-.889-.003l-.001.003c-.047.076-.496.729-2.055.729h-.027c-.27 0-.535-.024-.792-.07l.027.004a1.487 1.487 0 01-1.208-1.46v-.012.001-4.99a1.5 1.5 0 01.162-.679l-.004.009.651-1.301h7.382l.651 1.301c.1.195.158.426.158.671z"/><path d="M9.5 23.5a.5.5 0 11-1 0 .5.5 0 011 0zM8 25a.5.5 0 11-1 0 .5.5 0 011 0zM9.5 26.5a.5.5 0 11-1 0 .5.5 0 011 0zM10 9.5a.5.5 0 11-1 0 .5.5 0 011 0zM8.5 11a.5.5 0 11-1 0 .5.5 0 011 0zM25.485 17.379A.501.501 0 0025 17h-7a.5.5 0 00-.484.375l-.001.003-.5 2a.507.507 0 00-.015.121v9a.47.47 0 00.016.125l-.001-.003.5 2A.501.501 0 0018 31h7a.5.5 0 00.484-.375l.001-.003.5-2a.507.507 0 00.015-.121v-9a.47.47 0 00-.016-.125l.001.003zM18 28v-8h7v8zm6.61-10l.25 1h-6.719l.25-1zm-6.22 12l-.25-1h6.719l-.25 1z"/><path d="M21.5 21.5a.5.5 0 11-1 0 .5.5 0 011 0zM20 23a.5.5 0 11-1 0 .5.5 0 011 0zM21.5 24.5a.5.5 0 11-1 0 .5.5 0 011 0z"/></symbol><symbol id="icon-fast-delivery" viewBox="0 0 32 32"><title>Ícone - itens (criado por Freepik https://www.flaticon.com/authors/iconixar de https://www.flaticon.com/)</title><path d="M29 18a.5.5 0 000-1h-1a.5.5 0 000 1zM13.485 5.968l.486.365a.5.5 0 01.115.679l.001-.002-.475.713a.5.5 0 00.831.556l.001-.002.475-.713a1.498 1.498 0 00-.344-2.029l-.004-.003-.486-.365a.5.5 0 01-.115-.679l-.001.002.475-.713a.5.5 0 00-.831-.556l-.001.002-.475.713a1.498 1.498 0 00.344 2.029l.004.003zM9.485 5.968l.486.365a.5.5 0 01.115.679l.001-.002-.475.713a.5.5 0 00.831.556l.001-.002.475-.713a1.498 1.498 0 00-.344-2.029l-.004-.003-.486-.365a.5.5 0 01-.115-.679l-.001.002.475-.713a.5.5 0 00-.831-.556l-.001.002-.475.713a1.498 1.498 0 00.344 2.029l.004.003zM17.428 5.968l.486.365a.5.5 0 01.115.679l.001-.002-.475.713a.5.5 0 00.831.556l.001-.002.475-.713a1.498 1.498 0 00-.344-2.029l-.004-.003-.486-.365a.5.5 0 01-.115-.679l-.001.002.475-.713a.5.5 0 00-.831-.556l-.001.002-.475.713a1.496 1.496 0 00.344 2.029l.004.003zM21.5 24a1.5 1.5 0 101.5 1.5 1.502 1.502 0 00-1.5-1.5zm0 2a.5.5 0 11.5-.5.5.5 0 01-.5.5zM30.5 14H25a.5.5 0 000 1h5.5a.5.5 0 000-1zM23.5 20.5a.5.5 0 00.5.5h3a.5.5 0 000-1h-3a.5.5 0 00-.5.5z"/><path d="M30.5 28h-6.554c.533-.521.9-1.21 1.015-1.981l.002-.019h.536a1.502 1.502 0 001.5-1.5v-1a.5.5 0 00-.5-.5h-2.554a3.509 3.509 0 00-1.31-.811l-.025-.007.349-4.182h2.929a.5.5 0 000-1h-2.845l.455-5.459A.5.5 0 0023 11h-3.5V9.838l2.186-.874a.5.5 0 10-.375-.927l.003-.001-2.5 1a.5.5 0 00-.314.464V11H15a.5.5 0 00-.498.543v-.002L14.707 14H12.5v-2.5a.5.5 0 00-.5-.5h-1.5a.5.5 0 00-.5-.5H8a.5.5 0 00-.5.5v1H6a.5.5 0 00-.5.5V16a.5.5 0 00-.495.573v-.003l.786 5.502A3.502 3.502 0 004.053 23h.001H1.5a.5.5 0 00-.5.5v1A1.502 1.502 0 002.5 26h.536c.117.79.484 1.479 1.017 1.999l.001.001H1.5a.5.5 0 000 1h29a.5.5 0 000-1zM26 24v.5a.5.5 0 01-.5.5h-.536a3.474 3.474 0 00-.311-1.021l.009.021zm-3.543-12l-.083 1h-2.873v-1zM19.2 19.577c.485-.362.796-.933.8-1.576V18a1.002 1.002 0 00-1-1h-.036a3.513 3.513 0 00-3.243-2.993l-.01-.001-.001-.007h6.58l-.667 8.003-.123-.003h-.002a3.48 3.48 0 00-2.445 1h-.14c.055-.149.086-.32.086-.499v-.856c.308-.282.5-.686.5-1.135v-.011-.005c0-.345-.112-.664-.303-.922l.003.004zM18.5 12v1h-2.873l-.083-1zm-8 0h1v2.146a3.506 3.506 0 00-1.011.491l.011-.007zm-.429 4.909A2.51 2.51 0 0112.5 15h3a2.504 2.504 0 012.447 1.984l.003.016h-7.879zM19 17.999V18c0 .551-.481 1-1.071 1h-.012a1.09 1.09 0 01-.885-.453l-.002-.003a.5.5 0 00-.819-.001l-.001.002a1.114 1.114 0 01-1.796.003l-.002-.003a.5.5 0 00-.819-.001l-.001.002a1.114 1.114 0 01-1.796.003l-.002-.003a.5.5 0 00-.819-.001l-.001.002a1.09 1.09 0 01-.887.457h-.013.001c-.591 0-1.071-.449-1.071-1zM10.5 24h7.838c-.142.29-.248.627-.3.981l-.002.019H9.963a3.474 3.474 0 00-.311-1.021l.009.021zm-.5-1.5V22h8v.5a.5.5 0 01-.5.5h-7a.5.5 0 01-.5-.5zm8.091-1.5H9.909c-.226 0-.409-.224-.409-.5s.184-.5.409-.5v-.007c.054.004.108.007.162.007h.005c.494 0 .949-.169 1.309-.453l-.004.003c.357.281.814.45 1.31.45s.952-.169 1.314-.454l-.005.003c.357.281.814.45 1.309.45s.952-.169 1.314-.454l-.005.003c.355.281.81.45 1.304.45h.006c.055 0 .109-.003.163-.007v.007c.226 0 .409.224.409.5s-.183.5-.409.5zM8.5 11.5h1v4.199q-.088.146-.162.301H8.5zm-2 1.5h1v3h-1zM9 17a1.002 1.002 0 00-1 1c.003.644.315 1.215.794 1.573l.005.004c-.187.254-.3.572-.3.917v.016c0 .449.192.853.499 1.134l.001.001v.856c0 .179.031.351.089.51l-.003-.01h-.14a3.48 3.48 0 00-2.141-.986l-.013-.001-.716-5.013zm-5.964 8H2.5a.5.5 0 01-.5-.5V24h1.338c-.142.29-.248.627-.3.981L3.036 25zM6.5 28A2.5 2.5 0 119 25.5 2.503 2.503 0 016.5 28zm2.446 0c.533-.521.9-1.21 1.015-1.981L9.963 26h8.073c.117.79.484 1.479 1.017 1.999l.001.001zM21.5 28a2.5 2.5 0 112.5-2.5 2.503 2.503 0 01-2.5 2.5z"/><path d="M6.5 24A1.5 1.5 0 108 25.5 1.502 1.502 0 006.5 24zm0 2a.5.5 0 11.5-.5.5.5 0 01-.5.5z"/></symbol><symbol id="icon-list" viewBox="0 0 16 16"><title>Ícone - menu (criado por https://icons.getbootstrap.com/)</title><path fill-rule="evenodd" d="M2.5 12a.5.5 0 01.5-.5h10a.5.5 0 010 1H3a.5.5 0 01-.5-.5zm0-4a.5.5 0 01.5-.5h10a.5.5 0 010 1H3a.5.5 0 01-.5-.5zm0-4a.5.5 0 01.5-.5h10a.5.5 0 010 1H3a.5.5 0 01-.5-.5z"/></symbol><symbol id="icon-person" viewBox="0 0 16 16"><title>Ícone - login (criado por https://icons.getbootstrap.com/)</title><path d="M8 8a3 3 0 100-6 3 3 0 000 6zm2-3a2 2 0 11-4 0 2 2 0 014 0zm4 8c0 1-1 1-1 1H3s-1 0-1-1 1-4 6-4 6 3 6 4zm-1-.004c-.001-.246-.154-.986-.832-1.664C11.516 10.68 10.289 10 8 10c-2.29 0-3.516.68-4.168 1.332-.678.678-.83 1.418-.832 1.664h10z"/></symbol><symbol id="icon-person-fill" viewBox="0 0 16 16"><title>Ícone - conta (criado por https://icons.getbootstrap.com/)</title><path d="M3 14s-1 0-1-1 1-4 6-4 6 3 6 4-1 1-1 1H3zm5-6a3 3 0 100-6 3 3 0 000 6z"/></symbol><symbol id="icon-search" viewBox="0 0 16 16"><title>Ícone - busca (criado por https://icons.getbootstrap.com/)</title><path d="M11.742 10.344a6.5 6.5 0 10-1.397 1.398h-.001c.03.04.062.078.098.115l3.85 3.85a1 1 0 001.415-1.414l-3.85-3.85a1.007 1.007 0 00-.115-.1zM12 6.5a5.5 5.5 0 11-11 0 5.5 5.5 0 0111 0z"/></symbol><symbol id="icon-basket" viewBox="0 0 16 16"><title>Ícone - pedidos (criado por https://icons.getbootstrap.com/)</title><path d="M5.757 1.071a.5.5 0 01.172.686L3.383 6h9.234L10.07 1.757a.5.5 0 11.858-.514L13.783 6H15a1 1 0 011 1v1a1 1 0 01-1 1v4.5a2.5 2.5 0 01-2.5 2.5h-9A2.5 2.5 0 011 13.5V9a1 1 0 01-1-1V7a1 1 0 011-1h1.217L5.07 1.243a.5.5 0 01.686-.172zM2 9v4.5A1.5 1.5 0 003.5 15h9a1.5 1.5 0 001.5-1.5V9H2zM1 7v1h14V7H1zm3 3a.5.5 0 01.5.5v3a.5.5 0 01-1 0v-3A.5.5 0 014 10zm2 0a.5.5 0 01.5.5v3a.5.5 0 01-1 0v-3A.5.5 0 016 10zm2 0a.5.5 0 01.5.5v3a.5.5 0 01-1 0v-3A.5.5 0 018 10zm2 0a.5.5 0 01.5.5v3a.5.5 0 01-1 0v-3a.5.5 0 01.5-.5zm2 0a.5.5 0 01.5.5v3a.5.5 0 01-1 0v-3a.5.5 0 01.5-.5z"/></symbol><symbol id="icon-plus" viewBox="0 0 16 16"><title>Ícone - adicionar (criado por https://icons.getbootstrap.com/)</title><path d="M8 4a.5.5 0 01.5.5v3h3a.5.5 0 010 1h-3v3a.5.5 0 01-1 0v-3h-3a.5.5 0 010-1h3v-3A.5.5 0 018 4z"/></symbol><symbol id="icon-dash" viewBox="0 0 16 16"><title>Ícone - reduzir (criado por https://icons.getbootstrap.com/)</title><path d="M4 8a.5.5 0 01.5-.5h7a.5.5 0 010 1h-7A.5.5 0 014 8z"/></symbol><symbol id="icon-x" viewBox="0 0 16 16"><title>Ícone - fechar (criado por https://icons.getbootstrap.com/)</title><path d="M4.646 4.646a.5.5 0 01.708 0L8 7.293l2.646-2.647a.5.5 0 01.708.708L8.707 8l2.647 2.646a.5.5 0 01-.708.708L8 8.707l-2.646 2.647a.5.5 0 01-.708-.708L7.293 8 4.646 5.354a.5.5 0 010-.708z"/></symbol><symbol id="icon-clipboard-check" viewBox="0 0 16 16"><title>Ícone - concluído (criado por https://icons.getbootstrap.com/)</title><path fill-rule="evenodd" d="M10.854 7.146a.5.5 0 010 .708l-3 3a.5.5 0 01-.708 0l-1.5-1.5a.5.5 0 11.708-.708L7.5 9.793l2.646-2.647a.5.5 0 01.708 0z"/><path d="M4 1.5H3a2 2 0 00-2 2V14a2 2 0 002 2h10a2 2 0 002-2V3.5a2 2 0 00-2-2h-1v1h1a1 1 0 011 1V14a1 1 0 01-1 1H3a1 1 0 01-1-1V3.5a1 1 0 011-1h1v-1z"/><path d="M9.5 1a.5.5 0 01.5.5v1a.5.5 0 01-.5.5h-3a.5.5 0 01-.5-.5v-1a.5.5 0 01.5-.5h3zm-3-1A1.5 1.5 0 005 1.5v1A1.5 1.5 0 006.5 4h3A1.5 1.5 0 0011 2.5v-1A1.5 1.5 0 009.5 0h-3z"/></symbol><symbol id="icon-x-circle" viewBox="0 0 16 16"><title>Ícone - erro (criado por https://icons.getbootstrap.com/)</title><path d="M8 15A7 7 0 118 1a7 7 0 010 14zm0 1A8 8 0 108 0a8 8 0 000 16z"/><path d="M4.646 4.646a.5.5 0 01.708 0L8 7.293l2.646-2.647a.5.5 0 01.708.708L8.707 8l2.647 2.646a.5.5 0 01-.708.708L8 8.707l-2.646 2.647a.5.5 0 01-.708-.708L7.293 8 4.646 5.354a.5.5 0 010-.708z"/></symbol><symbol id="icon-star" viewBox="0 0 16 16"><title>Ícone - estrela vazia (criado por https://icons.getbootstrap.com/)</title><path d="M2.866 14.85c-.078.444.36.791.746.593l4.39-2.256 4.389 2.256c.386.198.824-.149.746-.592l-.83-4.73 3.522-3.356c.33-.314.16-.888-.282-.95l-4.898-.696L8.465.792a.513.513 0 00-.927 0L5.354 5.12l-4.898.696c-.441.062-.612.636-.283.95l3.523 3.356-.83 4.73zm4.905-2.767l-3.686 1.894.694-3.957a.565.565 0 00-.163-.505L1.71 6.745l4.052-.576a.525.525 0 00.393-.288L8 2.223l1.847 3.658a.525.525 0 00.393.288l4.052.575-2.906 2.77a.565.565 0 00-.163.506l.694 3.957-3.686-1.894a.503.503 0 00-.461 0z"/></symbol><symbol id="icon-star-half" viewBox="0 0 16 16"><title>Ícone - estrela metade (criado por https://icons.getbootstrap.com/)</title><path d="M5.354 5.119L7.538.792A.516.516 0 018 .5c.183 0 .366.097.465.292l2.184 4.327 4.898.696A.537.537 0 0116 6.32a.548.548 0 01-.17.445l-3.523 3.356.83 4.73c.078.443-.36.79-.746.592L8 13.187l-4.389 2.256a.52.52 0 01-.146.05c-.342.06-.668-.254-.6-.642l.83-4.73L.173 6.765a.55.55 0 01-.172-.403.58.58 0 01.085-.302.513.513 0 01.37-.245l4.898-.696zM8 12.027a.5.5 0 01.232.056l3.686 1.894-.694-3.957a.565.565 0 01.162-.505l2.907-2.77-4.052-.576a.525.525 0 01-.393-.288L8.001 2.223 8 2.226v9.8z"/></symbol><symbol id="icon-star-fill" viewBox="0 0 16 16"><title>Ícone - estrela preenchida (criado por https://icons.getbootstrap.com/)</title><path d="M3.612 15.443c-.386.198-.824-.149-.746-.592l.83-4.73L.173 6.765c-.329-.314-.158-.888.283-.95l4.898-.696L7.538.792c.197-.39.73-.39.927 0l2.184 4.327 4.898.696c.441.062.612.636.282.95l-3.522 3.356.83 4.73c.078.443-.36.79-.746.592L8 13.187l-4.389 2.256z"/></symbol><symbol id="icon-envelope" viewBox="0 0 16 16"><title>Ícone - e-mail (criado por https://icons.getbootstrap.com/)</title><path d="M0 4a2 2 0 012-2h12a2 2 0 012 2v8a2 2 0 01-2 2H2a2 2 0 01-2-2V4zm2-1a1 1 0 00-1 1v.217l7 4.2 7-4.2V4a1 1 0 00-1-1H2zm13 2.383l-4.758 2.855L15 11.114v-5.73zm-.034 6.878L9.271 8.82 8 9.583 6.728 8.82l-5.694 3.44A1 1 0 002 13h12a1 1 0 00.966-.739zM1 11.114l4.758-2.876L1 5.383v5.73z"/></symbol><symbol id="icon-facebook" viewBox="0 0 16 16"><title>Ícone - facebook (criado por https://icons.getbootstrap.com/)</title><path d="M16 8.049c0-4.446-3.582-8.05-8-8.05C3.58 0-.002 3.603-.002 8.05c0 4.017 2.926 7.347 6.75 7.951v-5.625h-2.03V8.05H6.75V6.275c0-2.017 1.195-3.131 3.022-3.131.876 0 1.791.157 1.791.157v1.98h-1.009c-.993 0-1.303.621-1.303 1.258v1.51h2.218l-.354 2.326H9.25V16c3.824-.604 6.75-3.934 6.75-7.951z"/></symbol><symbol id="icon-instagram" viewBox="0 0 16 16"><title>Ícone - instagram (criado por https://icons.getbootstrap.com/)</title><path d="M8 0C5.829 0 5.556.01 4.703.048 3.85.088 3.269.222 2.76.42a3.917 3.917 0 00-1.417.923A3.927 3.927 0 00.42 2.76C.222 3.268.087 3.85.048 4.7.01 5.555 0 5.827 0 8.001c0 2.172.01 2.444.048 3.297.04.852.174 1.433.372 1.942.205.526.478.972.923 1.417.444.445.89.719 1.416.923.51.198 1.09.333 1.942.372C5.555 15.99 5.827 16 8 16s2.444-.01 3.298-.048c.851-.04 1.434-.174 1.943-.372a3.916 3.916 0 001.416-.923c.445-.445.718-.891.923-1.417.197-.509.332-1.09.372-1.942C15.99 10.445 16 10.173 16 8s-.01-2.445-.048-3.299c-.04-.851-.175-1.433-.372-1.941a3.926 3.926 0 00-.923-1.417A3.911 3.911 0 0013.24.42c-.51-.198-1.092-.333-1.943-.372C10.443.01 10.172 0 7.998 0h.003zm-.717 1.442h.718c2.136 0 2.389.007 3.232.046.78.035 1.204.166 1.486.275.373.145.64.319.92.599.28.28.453.546.598.92.11.281.24.705.275 1.485.039.843.047 1.096.047 3.231s-.008 2.389-.047 3.232c-.035.78-.166 1.203-.275 1.485a2.47 2.47 0 01-.599.919c-.28.28-.546.453-.92.598-.28.11-.704.24-1.485.276-.843.038-1.096.047-3.232.047s-2.39-.009-3.233-.047c-.78-.036-1.203-.166-1.485-.276a2.478 2.478 0 01-.92-.598 2.48 2.48 0 01-.6-.92c-.109-.281-.24-.705-.275-1.485-.038-.843-.046-1.096-.046-3.233 0-2.136.008-2.388.046-3.231.036-.78.166-1.204.276-1.486.145-.373.319-.64.599-.92.28-.28.546-.453.92-.598.282-.11.705-.24 1.485-.276.738-.034 1.024-.044 2.515-.045v.002zm4.988 1.328a.96.96 0 100 1.92.96.96 0 000-1.92zm-4.27 1.122a4.109 4.109 0 100 8.217 4.109 4.109 0 000-8.217zm0 1.441a2.667 2.667 0 110 5.334 2.667 2.667 0 010-5.334z"/></symbol><symbol id="icon-geo-alt" viewBox="0 0 16 16"><title>Ícone - endereço (criado por https://icons.getbootstrap.com/)</title><path d="M12.166 8.94c-.524 1.062-1.234 2.12-1.96 3.07A31.493 31.493 0 018 14.58a31.481 31.481 0 01-2.206-2.57c-.726-.95-1.436-2.008-1.96-3.07C3.304 7.867 3 6.862 3 6a5 5 0 0110 0c0 .862-.305 1.867-.834 2.94zM8 16s6-5.686 6-10A6 6 0 002 6c0 4.314 6 10 6 10z"/><path d="M8 8a2 2 0 110-4 2 2 0 010 4zm0 1a3 3 0 100-6 3 3 0 000 6z"/></symbol><symbol id="icon-clock" viewBox="0 0 16 16"><title>Ícone - funcionamento (criado por https://icons.getbootstrap.com/)</title><path d="M8 3.5a.5.5 0 00-1 0V9a.5.5 0 00.252.434l3.5 2a.5.5 0 00.496-.868L8 8.71V3.5z"/><path d="M8 16A8 8 0 108 0a8 8 0 000 16zm7-8A7 7 0 111 8a7 7 0 0114 0z"/></symbol><symbol id="icon-telephone" viewBox="0 0 16 16"><title>Ícone - telefone (criado por https://icons.getbootstrap.com/)</title><path d="M3.654 1.328a.678.678 0 00-1.015-.063L1.605 2.3c-.483.484-.661 1.169-.45 1.77a17.568 17.568 0 004.168 6.608 17.569 17.569 0 006.608 4.168c.601.211 1.286.033 1.77-.45l1.034-1.034a.678.678 0 00-.063-1.015l-2.307-1.794a.678.678 0 00-.58-.122l-2.19.547a1.745 1.745 0 01-1.657-.459L5.482 8.062a1.745 1.745 0 01-.46-1.657l.548-2.19a.678.678 0 00-.122-.58L3.654 1.328zM1.884.511a1.745 1.745 0 012.612.163L6.29 2.98c.329.423.445.974.315 1.494l-.547 2.19a.678.678 0 00.178.643l2.457 2.457a.678.678 0 00.644.178l2.189-.547a1.745 1.745 0 011.494.315l2.306 1.794c.829.645.905 1.87.163 2.611l-1.034 1.034c-.74.74-1.846 1.065-2.877.702a18.634 18.634 0 01-7.01-4.42 18.634 18.634 0 01-4.42-7.009c-.362-1.03-.037-2.137.703-2.877L1.885.511z"/></symbol><symbol id="icon-divider" viewBox="0 0 2363 32"><path d="M284.308 2.462c-1.723.492-5.415.985-8.246 1.108s-5.538.738-5.908 1.354c-.492.738-1.231.985-1.846.615s-3.692-.123-6.892.615c-5.415 1.231-18.585 2.215-42.338 2.954-7.754.246-12.062 1.108-16.615 3.2-5.538 2.585-8.369 2.954-26.338 3.323-12.923.246-20.677-.123-21.785-.862-.985-.985-1.723-.985-2.338 0-.738 1.108-18.831.492-20.185-.738-.369-.246-1.969.369-3.692 1.477-3.815 2.585-23.877 2.954-28.431.492-1.846-.985-8.985-1.723-18.462-1.969-8.492-.246-19.2-.862-24-1.477-8.246-.985-16.492-.985-33.846.123-5.538.369-10.338-.246-15.385-1.723C3.939 9.723.493 8.616.37 8.616c-.246 0-.369 5.292-.369 11.692V32h2363.077V14.769l-7.015-.246c-9.723-.246-16.738.246-18.215 1.477-.615.492-5.292 1.231-10.092 1.723-4.923.369-11.2 1.723-14.031 2.831-4.308 1.723-6.154 1.723-12.923.492-4.308-.738-9.231-1.108-10.831-.615-1.969.492-4.8-.123-7.754-1.723-9.969-5.292-14.154-6.523-21.046-6.523-14.154.123-21.169-.738-23.631-2.954-1.354-1.231-2.462-1.6-2.462-.862 0 1.108-.738 1.108-3.077 0-2.092-.862-4.308-.985-7.015-.246-5.292 1.6-18.338 0-24.862-2.954-2.708-1.354-7.015-2.215-9.354-1.969-2.338.123-4.308.369-4.308.492s-1.846.369-4.185.738c-2.338.246-4.923 1.108-5.785 1.846-.862.615-4.431 1.108-8.123.985-3.569-.123-8.985.246-12.062.738s-11.323.985-18.462 1.108c-9.969.123-13.908.615-17.108 2.462-2.954 1.6-6.523 2.215-12.185 2.092-4.431 0-8.246-.246-8.492-.492s-4.062.492-8.738 1.6c-6.523 1.6-9.969 1.846-16.246.985-4.431-.738-12.923-1.354-19.077-1.6-6.031-.246-14.892-.862-19.692-1.354-4.677-.492-15.508-.985-23.754-1.231-11.2-.246-16-.862-18.092-2.215s-5.662-1.846-12.554-1.723c-7.015.123-10.831-.369-13.908-1.846-2.215-1.231-4.431-1.723-4.8-1.108s-7.877.615-16.738.123c-21.662-1.354-23.877-1.354-35.077 1.108-3.077.738-10.831 1.6-17.231 2.092s-14.154 1.723-17.231 2.831c-3.446 1.231-10.708 2.092-19.692 2.215-7.754.246-17.723.985-22.154 1.846-4.431.738-10.831 1.6-14.4 1.846-3.446.123-6.892.615-7.508.985s-2.708-.123-4.677-.985c-1.969-.985-8.615-2.092-14.646-2.462-6.154-.369-12.923-1.231-15.015-1.846-4.8-1.354-8.369-.615-13.046 2.831-2.831 2.092-5.046 2.585-11.077 2.338-4.062-.246-9.231-.985-11.446-1.6-4.431-1.477-31.262-2.338-31.262-1.108 0 .985-3.2 2.338-7.385 3.2-1.723.246-3.938 1.354-5.046 2.338-.985.985-2.215 1.477-2.585 1.108s-3.938 0-7.877.985c-7.015 1.477-15.508 1.231-30.031-1.108-5.292-.738-49.477-.738-54.769 0-11.569 1.846-16.369 2.215-23.631 2.215-11.569-.123-33.846-1.231-43.446-2.092-4.431-.492-10.708-.985-13.908-1.231s-7.262-1.231-8.862-2.338c-2.708-1.846-3.938-1.846-14.4.123-12.062 2.215-24.492 2.215-28.431.123-1.354-.738-4.8-.862-8-.369-3.077.492-9.354.738-14.031.738-4.554 0-8.369.369-8.369.862s-4.554.985-10.092 1.108c-5.662.123-10.215.246-10.215.369 0 0-6.646.369-14.769.738-22.277.985-26.585 1.354-32.615 2.585-3.323.615-10.338.738-17.846 0-6.769-.615-16.369-.985-21.292-.985-5.046.123-9.6-.246-10.338-.615-2.338-1.477-18.831-1.477-23.262 0-2.338.862-5.415 1.108-6.769.615-1.231-.492-6.523-.985-11.692-.985-12.554-.123-17.354-1.231-18.092-4.062-.369-1.477-.985-1.846-1.969-1.108-.738.615-4.062 1.477-7.508 1.969-3.323.492-6.769 1.477-7.631 2.092s-3.077.862-4.923.492c-1.846-.369-7.631.246-12.8 1.477-7.631 1.846-9.6 1.969-10.462.738-1.969-2.831-24.123-1.846-27.2 1.108-.369.369-3.692-.369-7.385-1.846-3.692-1.354-7.877-2.215-9.354-1.846s-6.031 1.477-10.092 2.708c-13.785 3.815-27.2 5.538-35.938 4.8-8.492-.862-11.077-.862-18.831-.492-2.338.123-7.877-.246-12.308-.985-6.4-.862-8.985-.738-13.169.738-4.8 1.846-5.662 1.846-11.077-.123-3.323-1.108-11.938-2.585-19.446-3.323-7.385-.615-18.462-1.723-24.615-2.462-7.015-.738-13.785-.738-18.585 0-12.308 1.969-31.631 1.723-35.815-.369-1.969-1.108-7.138-2.585-11.446-3.446-4.431-.862-9.108-2.585-10.585-3.815-1.723-1.6-4.554-2.215-9.231-2.215-10.092-.123-10.708 0-23.138 3.323-11.323 3.077-11.569 3.2-19.815 1.108-6.154-1.477-9.231-1.6-11.692-.738-1.723.615-5.046 1.231-7.138 1.231-2.215 0-6.523.862-9.723 1.846-3.692 1.108-10.831 1.723-19.692 1.6s-15.631.492-18.462 1.477c-3.446 1.354-6.154 1.354-11.569.369-4.8-.862-14.031-.862-28.185-.123-11.446.615-23.385.738-26.462.369-14.769-2.092-30.4-.862-40.862 3.077-4.308 1.6-7.015 1.969-8.985 1.231-1.723-.615-4.554-.615-7.015.123-4.308 1.231-8.738.738-18.831-2.092-9.108-2.462-31.015-5.538-34.215-4.8-1.477.369-4.8-.123-7.262-1.231-5.292-2.092-12.431-2.462-15.877-.615-1.6.985-3.077.862-4.8 0-1.846-.985-3.2-.862-5.169.246-3.569 1.969-19.2 3.692-34.215 3.815-10.708 0-12.431-.246-19.815-3.938-8-3.815-12.8-4.923-33.108-7.508-9.969-1.231-12.923-1.723-28.308-5.046-3.692-.738-13.538-1.477-21.662-1.477-12.062-.123-15.631.246-18.215 1.969-1.723 1.108-5.292 2.092-8 2.092s-5.046.492-5.292 1.108c-.615 1.846-10.462 1.723-21.292-.369-5.415-.985-13.662-2.215-18.462-2.708-4.677-.492-9.231-1.354-10.092-1.969s-2.708-.862-4.185-.369c-4.308 1.354-21.046 1.6-24.492.369-1.723-.615-6.523-1.108-10.831-1.108s-8.862-.615-10.092-1.354c-1.6-.985-5.538-1.108-14.277-.246-7.385.738-14.646.738-18.338.123-3.446-.615-10.215-.615-15.385-.123-10.092 1.108-10.954 1.231-17.231.123-2.338-.369-5.662-.246-7.385.369z"/></symbol></defs></svg>